<svg width="20" height="20" viewBox="0 0 20 20" fill="none" xmlns="http://www.w3.org/2000/svg">
<path d="M10.4166 5.83341C10.4166 6.06353 10.2301 6.25008 9.99998 6.25008C9.76986 6.25008 9.58331 6.06353 9.58331 5.83341C9.58331 5.6033 9.76986 5.41675 9.99998 5.41675C10.2301 5.41675 10.4166 5.6033 10.4166 5.83341Z" stroke="#141414"/>
<path d="M10.4166 10.0001C10.4166 10.2302 10.2301 10.4167 9.99998 10.4167C9.76986 10.4167 9.58331 10.2302 9.58331 10.0001C9.58331 9.76996 9.76986 9.58341 9.99998 9.58341C10.2301 9.58341 10.4166 9.76996 10.4166 10.0001Z" stroke="#141414"/>
<path d="M10.4166 14.1667C10.4166 14.3969 10.2301 14.5834 9.99998 14.5834C9.76986 14.5834 9.58331 14.3969 9.58331 14.1667C9.58331 13.9366 9.76986 13.7501 9.99998 13.7501C10.2301 13.7501 10.4166 13.9366 10.4166 14.1667Z" stroke="#141414"/>
</svg>
