<svg width="20" height="20" viewBox="0 0 20 20" fill="none" xmlns="http://www.w3.org/2000/svg">
<path d="M2.5 8.33329C2.5 5.19079 2.5 3.61913 3.47667 2.64329C4.45333 1.66746 6.02417 1.66663 9.16667 1.66663H10.8333C13.9758 1.66663 15.5475 1.66663 16.5233 2.64329C17.4992 3.61996 17.5 5.19079 17.5 8.33329V11.6666C17.5 14.8091 17.5 16.3808 16.5233 17.3566C15.5467 18.3325 13.9758 18.3333 10.8333 18.3333H9.16667C6.02417 18.3333 4.4525 18.3333 3.47667 17.3566C2.50083 16.38 2.5 14.8091 2.5 11.6666V8.33329Z" stroke="#ADA9BB" stroke-width="1.5"/>
<path d="M6.66667 8.33325H13.3333M6.66667 11.6666H10.8333" stroke="#ADA9BB" stroke-width="1.5" stroke-linecap="round"/>
</svg>
